<svg version="1.1" xmlns="http://www.w3.org/2000/svg" xmlns:xlink="http://www.w3.org/1999/xlink" width="1024" height="1024" viewBox="0 0 1024 1024"><path stroke="none" fill="black" fill-rule="evenodd" d="M764.7177025580733,757.5249873203813C759.0979661511329,757.6934231725761 753.15,757.6333107586777 751.5,757.3914041783847C749.85,757.1494975980918 745.125,756.2358699694017 741.0,755.3611205590735C736.875,754.4863711487451 732.375,753.190451643335 731.0,752.48129943594C729.625,751.7721472285448 725.3452290368765,747.8862471342512 721.4893978597256,743.8459658930653C717.6335666825748,739.8056846518793 697.1699848051393,718.5 676.0147714654245,696.5C654.8595581257097,674.5 633.3522490450493,652.173216729585 628.2207512861792,646.8849260657444L618.8907553609608,637.2698521314887L626.6953776804804,630.7202292792597C630.9879199562162,627.1179367105337 637.7521451213596,621.3197199809488 641.726989158577,617.8353032135153C645.7018331957943,614.350886446082 652.2268331957943,608.6202859977545 656.226989158577,605.1006355505658C660.2271451213596,601.580985103377 672.05,590.7530531071345 682.5,581.0385644478049C692.95,571.3240757884753 702.0264106424693,563.0620365928381 702.6698014277094,562.678477346389C703.386936208416,562.2509554073117 711.9045514456192,570.2076594777997 724.6814042951502,583.2405484491499C736.1443950870024,594.9332468021174 752.4734477127502,611.7 760.9681879079228,620.5C769.4629281030954,629.3 785.0383502624959,645.275 795.5802371510349,656.0L814.747304221106,675.5L816.0081137876049,685.9293108882605C816.7290703137032,691.8930027473568 817.0282861211354,700.6706862471275 816.7069227675047,706.4293108882605C816.3978224448753,711.9681898997172 815.387063843434,718.9730089092789 814.4607925420796,721.995575353953C813.5345212407252,725.018141798627 811.5894137500214,729.1981677167298 810.1383314516268,731.2845218386258C808.6872491532321,733.3708759605217 803.0,738.7228125856846 797.5,743.1777143389876C792.0,747.6326160922906 784.672966151133,752.6143067453758 781.2177025580733,754.2481380125101C775.7548787622266,756.8312498603088 773.6025904814963,757.2586877004937 764.7177025580733,757.5249873203813zM612.5538327997672,613.4731342665466L607.6076655995344,616.3142309514063L609.8787625389292,613.4269990566687L612.1498594783241,610.5397671619311L609.824929739162,608.7296644928274C608.5462183826229,607.7341080248204 605.3734020046892,605.1220848042782 602.774226677087,602.9251684471781C600.1750513494848,600.7282520900778 596.7220729966805,597.0029473037708 595.100941448633,594.6467133664959L592.153429543092,590.3626516623596L599.4758561872634,586.7394182523678C603.5031908415576,584.7466398768723 610.1061691943619,580.9982855503399 614.1491414157174,578.4097419711845C618.1921136370728,575.8211983920293 627.7350366004054,568.9717819130992 635.3556368897896,563.188816462451C642.976237179174,557.4058510118027 653.8807426877149,548.4579629038957 659.587871353214,543.304620667102C665.2950000187132,538.1512784303083 670.4173014554611,533.0887821898503 670.9707634348763,532.05462902164C671.8919385547085,530.3333975656727 672.422109755652,530.590043133933 677.2385289714518,535.0887324301132C680.1323380371533,537.7916424729838 683.9594251295027,541.0149136028372 685.7431669544504,542.2515571631208C687.5269087793981,543.4882007234044 688.9894087793982,544.9739388662324 688.9931669544504,545.5531974805164C688.9969251295026,546.1324560948003 683.7125,551.7595645506395 677.25,558.0578829379367C670.7875,564.3562013252339 656.95,577.009838041883 646.5,586.1770756416013C636.05,595.3443132413195 625.25,604.5969132413599 622.5,606.7384089750242C619.75,608.8799047086886 615.2742247598952,611.9105310898736 612.5538327997672,613.4731342665466zM479.0,599.515153525101C464.975,599.6639572079629 451.925,599.594483295715 450.0,599.3607670534388C448.075,599.1270508111628 439.7402579259907,597.8222005681297 431.478350946646,596.4610998466986C423.2164439673013,595.0999991252676 410.42995108919825,592.1677105209179 403.06392232863925,589.9449029481441C395.6978935680803,587.7220953753701 385.3576356420896,584.0765042938524 380.0855713819933,581.8435894336601C374.813507121897,579.6106745734679 365.6744779795056,575.325032456717 359.7766177322346,572.319940285325C353.8787574849637,569.3148481139328 344.6537574849637,563.8983922135182 339.2766177322346,560.2833716177369C333.8994779795056,556.6683510219556 326.8,551.6609110174602 323.5,549.1557271633028C320.2,546.6505433091453 313.57375628088255,541.29466086355 308.7750139575168,537.253766173091C303.9762716341511,533.212871482632 296.0869418144294,525.540180811226 291.24316991369085,520.2033424588556C286.3993980129523,514.866504106485 279.55200608057766,506.675 276.02674339730277,502.0C272.5014807140279,497.325 266.7348012990919,489.0 263.2119002530005,483.5C259.6889992069092,478.0 253.7355210109237,467.2 249.98194870636598,459.5C246.22837640180825,451.8 241.29387996748866,440.1 239.01640107454466,433.5C236.73892218160063,426.9 233.58825204700997,416.25345717420043 232.0149118865654,409.8410159426677C230.4415717261208,403.42857471113496 228.37909724534478,392.4035747111349 227.4316352626186,385.3410159426677C226.28336794109012,376.7816166337145 225.67668956288887,365.1644771439984 225.61214337602354,350.5C225.53974349996602,334.0512153508195 225.96804155796286,325.47206435409845 227.30952974647647,316.5C228.2963508051268,309.9 230.2270498536647,299.775 231.59997207656073,294.0C232.97289429945678,288.225 235.42873005420242,278.8636572578443 237.05738486488434,273.19701612854294C238.6860396755663,267.53037499924153 242.0511828727332,258.0488257083792 244.53548085858858,252.12690659329334C247.019778844444,246.20498747820747 251.78108362734272,236.44133022036317 255.11615815391912,230.42989046475043C258.4512326804955,224.4184507091377 263.6642730948288,215.75555683707861 266.7006924079931,211.179015193508C269.7371117211573,206.6024735499374 276.1659146624132,198.05247354993742 280.98692116633947,192.179015193508C285.8079276702657,186.3055568370786 293.7456003412637,177.60440339874452 298.6261937685572,172.84311866387674C303.50678719585073,168.08183392900895 310.425,161.7672450114653 314.0,158.81069884711306C317.575,155.85415268276083 322.3,152.04440692388982 324.5,150.34459716073306C326.7,148.6447873975763 333.3745223901713,144.24598584383673 339.3322719781584,140.56948259686737C345.2900215661455,136.892979349898 354.96502156614554,131.47994565230314 360.8322719781584,128.54051882443432C366.6995223901713,125.60109199656549 375.325,121.62264902559671 380.0,119.69953444450371C384.675,117.77641986341071 394.35,114.39662804902724 401.5,112.188885968096C408.65,109.98114388716476 417.6863089562221,107.47242354492046 421.58068656938235,106.61395187421977C425.47506418254267,105.75548020351907 434.2500641825427,104.13168455747368 441.08068656938235,103.00551710522998C448.0611234410391,101.85464967879352 461.16389706754364,100.6875617540199 471.0,100.34054933445532C481.72223818193027,99.96227454003629 493.14760810381927,100.17439198471034 500.5,100.88823091156524C507.1,101.52902060065809 517.45,102.96364220399789 523.5,104.07627891898704C529.55,105.1889156339762 540.4314936915836,107.64317275516393 547.681097092408,109.53018363273756C554.9307004932325,111.41719451031119 565.2807004932324,114.72528082360903 570.681097092408,116.88148655117718C576.0814936915837,119.03769227874533 584.614222568617,122.6163144765959 589.6427168191491,124.83398032417847C594.6712110696811,127.05164617176104 603.18314832103,131.40500941189768 608.5581329332579,134.5081208578155C613.9331175454857,137.61123230373332 620.9056995232577,141.89870066474322 624.052759550529,144.03582832672643C627.1998195778003,146.17295598870965 634.6628823264514,151.91841538348632 640.6373434364202,156.8035158706746C646.6118045463891,161.68861635786288 655.3966285694315,169.7864899011493 660.1591745987366,174.79879041131107C664.9217206280417,179.81109092147284 672.6034344802339,188.99434965126676 677.2296498258303,195.20603203307533C681.8558651714267,201.4177144148839 687.4596948901353,209.2 689.682604756294,212.5C691.9055146224526,215.8 697.1198262660896,224.8 701.2699639643761,232.5C705.4201016626625,240.2 711.3615733888786,252.96007376785678 714.4732344670783,260.8557194841262C717.5848955452782,268.7513652003956 721.8624979523901,282.02636520039556 723.9790175939937,290.3557194841262C726.0955372355974,298.6850737678568 728.5411072212412,311.0537843622301 729.4136175620911,317.8417430271779C730.4059994416936,325.5622786623458 731.0000000000001,337.8059188222073 731.0,350.54052664626124C731.0,363.1288217688191 730.4116016381548,375.38612373675426 729.4581745683968,382.65927666748644C728.6101705810149,389.12821685361234 726.9936838217589,398.7137642250248 725.86598177005,403.9604930484031C724.7382797183412,409.2072218717814 722.2281229427322,418.45 720.28785560203,424.5C718.3475882613279,430.55 715.1849159194078,439.325 713.2596948422076,444.0C711.3344737650075,448.675 708.2404398945804,455.5223186789508 706.3840640190364,459.2162637310018C704.5276881434924,462.9102087830528 700.0150907298545,470.7852087830528 696.3560697665077,476.7162637310018C692.6970488031609,482.6473186789508 686.3618413053038,491.8679475699357 682.2778308823806,497.2065501554127C678.1938204594574,502.54515274088965 670.7625827717318,511.3201527408897 665.7639693541013,516.7065501554127C660.7653559364708,522.0929475699357 653.4860755245855,529.3671723239733 649.587790661023,532.8714940532739C645.6895057974604,536.3758157825745 638.9,542.1371788958139 634.5,545.674523193806C630.1,549.211867491798 622.0,555.1525894361619 616.5,558.8761275146145C611.0,562.5996655930671 603.0377899326589,567.5235560647421 598.8061998503532,569.8181063405589C594.5746097680475,572.1126566163757 586.9246097680475,575.8472185831822 581.8061998503532,578.1171329334622C576.6877899326589,580.3870472837423 566.875,584.0112970770372 560.0,586.1710213630063C553.125,588.3307456489755 537.825,592.1558247230817 526.0,594.6711970832421L504.5,599.244601374443L479.0,599.515153525101zM473.0,556.8493321432951C479.325,556.931280122405 489.44125705001113,556.529761954925 495.480571222247,555.9570695488949C501.5198853944829,555.3843771428648 511.95469696570456,553.6029398850296 518.6690413805175,551.9983200870389C525.3833857953302,550.3937002890482 537.3171287453191,546.9836310294673 545.1884701582703,544.4203883990815C553.0598115712216,541.8571457686957 564.45,537.5274122176833 570.5,534.7987582857206C576.9037847705976,531.9105413446077 588.136065607373,525.4142078917758 597.381919805264,519.2512557397093C609.647686719586,511.0753389467959 615.8045590608085,506.14157531811884 624.4225222696887,497.58247108045134C630.5597977322269,491.4871119862031 638.4879338198581,482.5933499498184 642.0406024644246,477.8185554440409C645.5932711089911,473.0437609382634 651.4006182994976,464.4937609382634 654.945818443328,458.8185554440409C658.4910185871584,453.1433499498184 663.7993151546309,443.1894397689612 666.7420330377115,436.6987550421361C669.684750920792,430.208070315311 673.4454425636175,420.75807031531093 675.0991255773237,415.6987550421361C676.7528085910299,410.63943976896127 679.4170097230626,399.975 681.0195725373965,392.0C682.6221353517302,384.025 684.4111666979228,371.51784161100034 684.9951977511578,364.2063146911119C685.7268738698427,355.04640853753887 685.7430816683068,346.4915481213803 685.0473198806272,336.69501862014215C684.4919559986005,328.87533270099726 683.3427764531037,318.4324910899969 682.493587557301,313.4887039290303C681.6443986614983,308.5449167680636 679.8003414254034,300.45 678.3956825882012,295.5C676.9910237509991,290.55 673.9057899711,281.53579178767603 671.5396075217587,275.4684261948356C669.1734250724174,269.4010606019952 664.9825611352809,259.9510606019952 662.2265765503439,254.46842619483562C659.470591965407,248.98579178767602 653.2797820117584,238.875 648.4692210977913,232.0C643.6586601838243,225.125 637.8188340978041,217.25 635.4918297955244,214.5C633.1648254932445,211.75 627.9397074837735,206.26256588416334 623.8804564411441,202.30570196480738C619.8212053985148,198.34883804545143 613.35,192.6739654035336 609.5,189.69487387165663C605.65,186.71578233977965 598.080123979488,181.3093517744363 592.678053287751,177.68058372644916C587.275982596014,174.05181567846202 578.275982596014,168.84799881081634 572.678053287751,166.11654624279208C567.080123979488,163.38509367476783 557.9511342240601,159.57876708084683 552.3914093868001,157.65804270074545C546.8316845495401,155.73731832064408 537.1566845495402,152.79305452854163 530.8914093868001,151.11523427385117C524.62613422406,149.4374140191607 515.0,147.30741206898853 509.5,146.38189660680192C502.63192891448864,145.226168245886 493.3927386167471,144.6804147429595 480.0,144.6393490655669C466.10517982693426,144.5967438733815 457.19438112770547,145.08717337216513 449.0,146.34551648954957C442.675,147.31679425823268 432.21622435271337,149.42763899564045 425.758276339363,151.03628257267795C419.3003283260127,152.64492614971545 409.62532832601266,155.58402322497466 404.258276339363,157.56760940658728C398.8912243527134,159.5511955881999 389.4580726752249,163.63010351647486 383.29571705605537,166.6318492471983C377.1333614368858,169.63359497792172 367.0953253916197,175.42757895344585 360.9889702887973,179.50736919280743C354.88261518597494,183.58715943216902 345.7277638798941,190.50276700813072 340.64485627528427,194.87538602827786C335.5619486706744,199.248005048425 327.35743999751173,207.05754765842482 322.4126147793672,212.22992516161082C317.4677895612226,217.40230266479682 309.80167458136526,227.00404211837412 305.37680371301747,233.56712394733813C300.95193284466967,240.13020577630215 295.04884278217355,249.775 292.25882579635936,255.0C289.4688088105452,260.225 285.16261745340313,270.125 282.689511669377,277.0C280.2164058853508,283.875 276.80387441323734,295.125 275.1061083980137,302.0C273.40834238279007,308.875 271.56685668293477,318.55 271.01391795389077,323.5C270.4609792248467,328.45 269.730680662032,338.8 269.39103225874686,346.5C268.89368666973553,357.7750744544868 269.1983145572098,363.7893622486703 270.9561357279638,377.39993752570984C272.4098602631076,388.65593304268725 274.4620264481505,398.9118380445538 277.1010394611948,408.10970625348716C279.2802812031174,415.70511341462424 282.81338906937054,426.1001415280548 284.95239027509064,431.20976872777726C287.0913914808107,436.3193959274998 291.1575936235563,444.74197980802813 293.9883950367474,449.9266217956181C296.8191964499385,455.111263783208 302.7540337041959,464.4268618062183 307.1769222684305,470.627950735641C311.59981083266507,476.8290396650637 318.4903977134622,485.4244994445253 322.4893375590908,489.7289724677779C326.4882774047194,494.03344549103053 333.526606390772,500.7874978888614 338.1300686392077,504.73797779629103C342.7335308876435,508.6884577037207 351.0,515.1398878182387 356.5,519.0744891618866C362.36379689859297,523.2693442811743 373.53154527239195,529.6888627627924 383.5,534.5948065259792C397.7572061869779,541.6114458833066 403.5654754380835,543.8333676217796 419.5,548.3664102734821C429.95,551.3392191280058 442.325,554.280108179784 447.0,554.9017192774338C451.675,555.5233303750836 456.85,556.1823145456686 458.5,556.3661285454007C460.15,556.5499425451326 466.675,556.7673841641852 473.0,556.8493321432951zM477.0,509.8695942704792C474.525,509.8207951876601 470.5059087781983,509.3897101193964 468.068686173774,508.91162745211545C465.63146356934965,508.43354478483445 460.77706815483583,507.0905381854457 457.28114080818773,505.92716834236273C451.78623635547933,504.0985816765006 451.01044443587733,503.5424529984527 451.5561228170284,501.8231726615913C451.90329026853885,500.72934488025004 452.23713493782867,484.2341560299342 452.29799985989456,465.16719743866724C452.35886478196045,446.10023884740025 452.0456143712625,424.3125 451.6018878361213,416.75L450.79511231768277,403.0L445.95657315321637,403.0C443.2953766127598,403.0 440.8999763346366,403.3528246958624 440.6334614240536,403.7840548796943C440.3669465134707,404.2152850635261 439.67204479814677,411.3027850635261 439.08923539000045,419.5340548796943C438.50642598185414,427.76532469586243 437.3498232516894,444.175 436.5190071007454,456.0C435.6881909498015,467.825 434.8940350176567,484.18948856884276 434.75421614042364,492.365530152984L434.5,507.23106030596796L424.5,506.760789540899C416.6528631322813,506.39176163506073 411.91656424126245,505.48306372199363 402.5,502.5399085223079C395.9,500.4770728828707 387.35,497.53526969600046 383.5,496.0025681070407C379.65,494.469866518081 375.77536572713694,492.980521408954 374.88970161585985,492.6929123089808C373.481716928393,492.23568568820866 373.873169226078,489.9292445421676 378.0054323488521,474.33499333633296C380.6047483632749,464.5257470013498 384.8538184536419,448.85 387.4478103274454,439.5C390.0418022012489,430.15 394.8185320029016,411.6536844675907 398.0627654422291,398.397076594646C401.3069988815566,385.14046872170127 405.472647085936,368.9404687217013 407.31976145196114,362.397076594646L410.6781512083705,350.5L410.22087309733774,317.1867314627171L409.763594986305,283.8734629254342L407.31939093422574,286.1696734074315C405.9750787055821,287.43258917253 403.96305003915654,289.9417523037776 402.84821611994664,291.7455914768705C401.73338220073674,293.5494306499634 399.86263239485766,295.5383331527265 398.6909943291042,296.16537481634407C396.7390889000641,297.2100029000709 395.1140226079819,295.80894383150365 379.2803716502308,279.43040894862776C369.7761672426039,269.59913605776626 362.0,261.382666633275 362.0,261.1715880053139C362.0,260.96050937735276 363.3336095505052,259.1039894039263 364.96357677890046,257.04598806436616C366.5935440072957,254.987986724806 370.71881349557975,247.94822977141266 374.1308423084206,241.40208372349204C377.5428711212615,234.85593767557143 382.13825226775236,226.89284140284477 384.3428004117337,223.7063142285439C386.547348555715,220.51978705424304 390.4095790674309,216.41379372687106 392.92553488221347,214.5818846121617C395.4414906969961,212.74997549745234 399.3,210.34466657065926 401.5,209.23675366373263C403.7,208.128840756806 410.63681550783036,205.597334084178 416.9151455729563,203.61118328011486C423.19347563808225,201.62503247605173 428.7059756380823,200.00000000000006 429.1651455729563,200.00000000000003C429.6243155078303,200.0 430.0,200.94612295564082 430.0,202.10249545697963C430.0,203.25886795831843 431.33886999050065,208.20125055284473 432.975266645557,213.0855678892603C434.6116633006134,217.96988522567585 437.91808921147873,225.91126227003502 440.3228797808134,230.73307243228066C442.7276703501481,235.5548825945263 446.61689952062886,242.65 448.96561127077075,246.5C451.3143230209126,250.35 455.4470780643434,256.4991704014526 458.14951136728365,260.16482311433913C460.85194467022393,263.83047582722565 465.99030943316467,269.56797582722567 469.5680997293741,272.91482311433913C473.14589002558364,276.2616704014526 476.97905603838535,279.0 478.086246424489,279.0C479.1934368105927,279.0 481.34797181962716,278.35429697368687 482.8741020001212,277.56510438597087C484.40023218061515,276.77591179825487 488.3153852135173,273.27510100095566 491.5744420732369,269.78552483641704C494.8334989329566,266.2959486718785 500.2863730700797,259.3658902237839 503.6919401557327,254.38539495176232C507.0975072413857,249.4048996797408 512.3640521309279,240.64321047704 515.3953732436042,234.91497450131612C518.4266943562806,229.18673852559226 522.5028212862009,220.09017401981413 524.4534330878715,214.70038671069804C526.4040448895422,209.31059940158195 528.0,203.79809940158196 528.0,202.45038671069804C528.0,201.10267401981412 528.4969501634346,200.0 529.1043336965214,200.0C529.7117172296082,200.0 536.1242172296081,202.3200140322674 543.3543336965214,205.15558673837202C550.5844501634347,207.99115944447664 558.75,211.7613734143834 561.5,213.53384000483152C564.25,215.30630659527964 568.1636760477472,218.49879256301222 570.1970578838828,220.6282532664595C572.2304397200185,222.75771396990677 577.5445695880342,231.2209229903164 582.0062353683624,239.43538442292535C586.4679011486905,247.6498458555343 591.4417251009432,255.87800415827166 593.0591774844795,257.72018065123063C594.6766298680158,259.5623571441896 596.0,261.26284218531924 596.0,261.4990362981854C596.0,261.7352304110515 593.4039375984823,264.53207210831414 590.230972441072,267.7142400698801C587.0580072836616,270.896408031446 579.5868589650263,278.5781775443989 573.6284206218825,284.78483898755314C565.6441297644259,293.10174811071744 562.329053089385,295.9218250640866 561.0236394381691,295.5075028662137C560.0494481302705,295.19830655632285 556.9146936021966,292.25762901192394 554.0575182646716,288.97266387866057C551.2003429271465,285.68769874539726 548.4252369033072,283.0 547.8906159894732,283.0C547.2763444123188,283.00000000000006 546.99058321947,295.60598919679614 547.1142135428042,317.25L547.309849121288,351.5L553.033403635633,372.5C556.1813586185227,384.05 559.3134284841173,395.975 559.9935588925097,399.0C560.6736893009021,402.025 564.360252526587,415.975 568.1859216162541,430.0C572.011590705921,444.025 577.4023581840547,463.7449466039816 580.1654049009956,473.8221035644035C582.9284516179364,483.8992605248254 585.0340728085064,492.28224950010764 584.8445631022622,492.45096795391953C584.655053396018,492.6196864077315 576.9605291633118,495.2938429078268 567.7456203629149,498.39353795413143C558.5307115625181,501.4932330004361 547.8137923335717,504.69774402515384 543.9302442985893,505.51467356461535C540.046696263607,506.3316031040769 533.7455252304313,507.0 529.9276420026434,507.0L522.9860361339381,507.0L523.5780606605734,500.25C523.9036741502229,496.5375 523.708233836057,486.525 523.1437488513161,478.0C522.579263866575,469.475 521.1866940549996,451.25 520.0491492700373,437.5C518.9116044850749,423.75 517.7296379583004,410.1521599037029 517.422556988316,407.2825775637843C516.88163693083,402.2278369709401 516.7522215843635,402.0441426063431 513.2720352198628,401.3912557088545C510.5293409493853,400.8767231621847 509.3931673010143,401.1094079689107 508.4676065994502,402.37518765145194C507.80087686088825,403.2869949001733 506.9297768099542,407.7380897348917 506.5318287084857,412.26650950638174C506.1338806070172,416.7949292778718 505.82542620470883,439.4379070318511 505.8463744811337,462.5842378485581L505.88446225645174,504.66847569711615L500.1922311282259,505.8391926639563C497.0615040077016,506.4830869957184 491.575,507.6733019358783 488.0,508.48411475320063C484.425,509.2949275705229 479.475,509.9183933532982 477.0,509.8695942704792zM633.0000487063589,446.0C631.5205618131796,446.0 627.5946281759958,444.24492360113254 624.2757517348392,442.099830224739C620.9568752936826,439.9547368483455 617.9470677648325,437.7233708387733 617.5872905596165,437.1412390923564C617.2275133544005,436.55910734593954 618.4599310456439,433.026683744807 620.3259965401572,429.2914088676174C622.1920620346706,425.55613399042784 624.6630152489776,419.575 625.8170036830613,416.0C626.9709921171452,412.425 629.0450231472219,405.0 630.425961527676,399.5C631.8068999081303,394.0 633.4034921420957,385.675 633.9739442698215,381.0C634.5443963975472,376.325 635.2974761286657,366.2 635.6474547834181,358.5C636.0326915274462,350.0242747272238 635.8135171863855,339.7649073766653 635.0920079734091,332.5C634.4365335731518,325.9 633.4485721729459,317.8 632.8965381951738,314.5C632.3445042174017,311.2 630.7431853611756,304.675 629.3380518480047,300.0C627.9329183348339,295.325 625.2022171492578,287.675 623.2698269911689,283.0C621.3374368330801,278.325 617.5612025135763,270.1206758547702 614.8781951700491,264.7681685661559C612.1951878265221,259.41566127754163 610.0,254.6127192184952 610.0,254.0949639904971C610.0,253.57720876249897 613.1343953971028,251.06984888638098 616.965323104673,248.5230531546793C622.9269540191874,244.5597687165356 624.2333023962705,244.0544921363243 626.0309894741729,245.01658506326146C627.1861782698278,245.6348233446833 630.1366807956302,249.24060557450912 632.587661753734,253.02943446287438C635.0386427118378,256.81826335123964 639.3099039621306,264.9403025621783 642.0793534210516,271.0784104871825C644.8488028799726,277.2165184121867 648.6416521789134,287.54359632440344 650.5079074186981,294.0274725143307C652.3741626584829,300.51134870425807 654.5818226425888,309.5701621935039 655.4138184944891,314.15816915709934C656.2458143463895,318.7461761206947 657.4540476488553,327.225 658.0987813888577,333.0C658.793062255221,339.2188028243002 659.0368509706539,349.41212943310927 658.6966939369117,358.0C658.313892977628,367.6644924699806 657.1011657570309,378.0653757570311 655.0601481163353,389.1886201657154C653.0998612614693,399.8718937264348 650.2456153451336,411.02714460435516 647.1283118560198,420.1886201657154C644.4500202755908,428.05987907457194 641.5083231631816,436.2835307234546 640.591207161777,438.46340160767693C639.6740911603723,440.6432724918992 638.1961413272657,443.2307724918992 637.3068741993177,444.21340160767693C636.4176070713697,445.1960307234546 634.4795355995383,446.0 633.0000487063589,446.0zM478.78821823127566,362.0C481.24530683167126,362.0 483.709858661727,361.2294653704445 485.3306966302356,359.95451403860164C486.7609243378466,358.8294967598325 488.37717317616875,356.29352271558923 488.9223607153959,354.3190161625054C489.64670747885305,351.69564837024313 489.56306171852026,349.8903955623993 488.61170939166766,347.6145021239038C487.89566362439,345.9015259557567 486.60525460440664,343.9157242460666 485.74413379170466,343.2016094357036C484.8830129790027,342.48749462534056 482.63296052186513,341.6524188993584 480.7440172202879,341.3458856001877C478.55102376066696,340.99001175279585 476.1726171213011,341.37649602242925 474.16420512997666,342.41508622717845C472.43425178188267,343.3096798711941 470.2891440232901,345.15526993843565 469.3972989997709,346.5163974877154C468.23717127716185,348.28697618948945 467.97086702428635,350.0311708780411 468.4614214222838,352.6460506275418C468.8385337781852,354.6562323051666 470.429371810061,357.58321796390715 471.9966170486746,359.15046320252077C474.16552751687124,361.31937367071737 475.7877359357814,362.0 478.78821823127566,362.0zM479.5,321.0C482.71716320228484,321.0 484.6459907469211,320.3273144863326 486.9232747180565,318.4111063580068C489.2675087280299,316.4385634860834 490.0,314.9982908946901 490.0,312.36144643112266C490.0,310.45802497443253 489.3203422981705,307.58636707827804 488.48964955148995,305.9799844396681C487.65895680480935,304.3736018010582 486.1135404591496,302.5959487681561 485.0553910055793,302.02964436655236C483.9972415520089,301.46333996494855 481.72955228674056,301.0 480.01608152720513,301.0C478.3026107676697,301.0 475.580644220125,301.68261710679553 473.96726697710585,302.5169269039901C472.35388973408675,303.35123670118463 470.32269581028413,305.40908173114724 469.453502701989,307.08991585946256C468.45962523123615,309.0118629575957 468.10952298638574,311.22216980212704 468.5100937631804,313.0459566027363C468.8604119551308,314.64094488322155 470.49847922290587,317.08309985325894 472.150243247125,318.47296764726383C474.35418017295643,320.3274583059277 476.31023659314667,321.0 479.5,321.0z"/></svg>